<svg width="42" height="42" viewBox="0 0 42 42" fill="none" xmlns="http://www.w3.org/2000/svg">
<path d="M21 31.5L21.7071 32.2071L21 32.9142L20.2929 32.2071L21 31.5ZM32.2071 21.7071L21.7071 32.2071L20.2929 30.7929L30.7929 20.2929L32.2071 21.7071ZM20.2929 32.2071L9.79289 21.7071L11.2071 20.2929L21.7071 30.7929L20.2929 32.2071Z" fill="#3B6DEC"/>
<path d="M21 21L21.7071 21.7071L21 22.4142L20.2929 21.7071L21 21ZM32.2071 11.2071L21.7071 21.7071L20.2929 20.2929L30.7929 9.79289L32.2071 11.2071ZM20.2929 21.7071L9.79289 11.2071L11.2071 9.7929L21.7071 20.2929L20.2929 21.7071Z" fill="#3B6DEC"/>
</svg>
