<svg width="30" height="30" viewBox="0 0 30 30" fill="none" xmlns="http://www.w3.org/2000/svg">
<path d="M26.3935 0H3.16723C1.41865 0 0 1.43973 0 3.21429V26.7857C0 28.5603 1.41865 30 3.16723 30H26.3935C28.1421 30 29.5608 28.5603 29.5608 26.7857V3.21429C29.5608 1.43973 28.1421 0 26.3935 0ZM18.2973 25.6942C17.7431 25.7946 17.5385 25.4464 17.5385 25.1585C17.5385 24.7969 17.5517 22.9487 17.5517 21.4554C17.5517 20.4107 17.2086 19.7478 16.8061 19.3996C19.2475 19.125 21.8209 18.7835 21.8209 14.5045C21.8209 13.2857 21.392 12.6763 20.6925 11.8929C20.8047 11.6049 21.1808 10.4196 20.5804 8.87946C19.6632 8.59152 17.5649 10.0781 17.5649 10.0781C16.6939 9.83036 15.7504 9.70312 14.82 9.70312C13.8896 9.70312 12.946 9.83036 12.075 10.0781C12.075 10.0781 9.97676 8.59152 9.05959 8.87946C8.45913 10.4129 8.82864 11.5982 8.94741 11.8929C8.24798 12.6763 7.91806 13.2857 7.91806 14.5045C7.91806 18.7634 10.3793 19.125 12.8207 19.3996C12.5039 19.6875 12.2202 20.183 12.1212 20.8929C11.4944 21.1808 9.89098 21.6763 8.93422 19.9621C8.33376 18.904 7.25163 18.817 7.25163 18.817C6.18269 18.8036 7.17905 19.5 7.17905 19.5C7.89167 19.8348 8.39315 21.1205 8.39315 21.1205C9.03319 23.1094 12.0948 22.4397 12.0948 22.4397C12.0948 23.3705 12.108 24.8839 12.108 25.1585C12.108 25.4464 11.9101 25.7946 11.3492 25.6942C6.99429 24.2143 3.94584 20.0089 3.94584 15.0937C3.94584 8.94643 8.5779 4.27902 14.6352 4.27902C20.6925 4.27902 25.6017 8.94643 25.6017 15.0937C25.6083 20.0089 22.6523 24.221 18.2973 25.6942ZM11.8243 21.6027C11.6989 21.6295 11.5802 21.5759 11.567 21.4888C11.5538 21.3884 11.6396 21.3013 11.7649 21.2746C11.8903 21.2612 12.0091 21.3147 12.0223 21.4018C12.0421 21.4888 11.9563 21.5759 11.8243 21.6027ZM11.1975 21.5424C11.1975 21.6295 11.0985 21.7031 10.9665 21.7031C10.8214 21.7165 10.7224 21.6429 10.7224 21.5424C10.7224 21.4554 10.8214 21.3817 10.9533 21.3817C11.0787 21.3683 11.1975 21.442 11.1975 21.5424ZM10.2935 21.4688C10.2671 21.5558 10.1351 21.596 10.023 21.5558C9.89758 21.529 9.8118 21.4286 9.8382 21.3415C9.86459 21.2545 9.99656 21.2143 10.1087 21.2411C10.2407 21.2813 10.3265 21.3817 10.2935 21.4688ZM9.48188 21.1071C9.4225 21.1808 9.29713 21.1674 9.19815 21.067C9.09918 20.9799 9.07278 20.8527 9.13877 20.7924C9.19815 20.7188 9.32352 20.7321 9.4225 20.8326C9.50828 20.9196 9.54127 21.0536 9.48188 21.1071ZM8.88143 20.4978C8.82204 20.5379 8.70987 20.4978 8.63729 20.3973C8.56471 20.2969 8.56471 20.183 8.63729 20.1362C8.70987 20.0759 8.82204 20.1228 8.88143 20.2232C8.95401 20.3237 8.95401 20.4442 8.88143 20.4978ZM8.45253 19.8482C8.39315 19.9085 8.29417 19.875 8.22159 19.808C8.14901 19.721 8.13581 19.6205 8.1952 19.5737C8.25458 19.5134 8.35356 19.5469 8.42614 19.6138C8.49872 19.7009 8.51192 19.8013 8.45253 19.8482ZM8.01044 19.3527C7.98405 19.4129 7.89827 19.4263 7.82569 19.3795C7.73991 19.3393 7.70032 19.2656 7.72671 19.2054C7.7531 19.1652 7.82569 19.1451 7.91147 19.1786C7.99725 19.2254 8.03684 19.2991 8.01044 19.3527Z" fill="black"/>
</svg>
