<svg width="30" height="30" viewBox="0 0 30 30" fill="none" xmlns="http://www.w3.org/2000/svg">
<path d="M27.8571 0H2.13616C0.957589 0 0 0.955811 0 2.12915V27.4021C0 28.5754 0.957589 29.5312 2.13616 29.5312H27.8571C29.0357 29.5312 30 28.5754 30 27.4021V2.12915C30 0.955811 29.0357 0 27.8571 0ZM9.06696 25.3125H4.62054V11.2192H9.07366V25.3125H9.06696ZM6.84375 9.29443C5.41741 9.29443 4.26563 8.15405 4.26563 6.75659C4.26563 5.35913 5.41741 4.21875 6.84375 4.21875C8.26339 4.21875 9.42187 5.35913 9.42187 6.75659C9.42187 8.16064 8.27009 9.29443 6.84375 9.29443ZM25.7344 25.3125H21.2879V18.457C21.2879 16.8223 21.2545 14.7195 18.9777 14.7195C16.6607 14.7195 16.3058 16.4993 16.3058 18.3384V25.3125H11.8594V11.2192H16.125V13.144H16.1853C16.7813 12.0366 18.2344 10.8699 20.3973 10.8699C24.8973 10.8699 25.7344 13.79 25.7344 17.5869V25.3125Z" fill="black"/>
</svg>
