<svg width="30" height="30" viewBox="0 0 30 30" fill="none" xmlns="http://www.w3.org/2000/svg">
<path fill-rule="evenodd" clip-rule="evenodd" d="M13.9977 0V8.95863C12.6846 8.88025 11.3967 8.64798 10.1822 8.27061C8.66041 7.79771 7.29241 7.10896 6.15169 6.25319C5.423 5.70653 4.79884 5.10069 4.2878 4.45321C6.79536 1.90592 10.2044 0.249076 13.9977 0ZM15.9977 9.66294e-05V8.95863C17.3108 8.88025 18.5987 8.64798 19.8131 8.27061C21.335 7.79771 22.703 7.10897 23.8437 6.25319C24.5721 5.70677 25.196 5.1012 25.7069 4.45404C23.1996 1.90662 19.7908 0.249532 15.9977 9.66294e-05ZM27.0309 5.99361C26.4574 6.66973 25.7905 7.29293 25.0439 7.85304C23.7037 8.85848 22.1263 9.64613 20.4066 10.1805C18.9968 10.6186 17.5083 10.8813 15.9977 10.9618V13.9993L29.9928 13.9993C29.7962 11.0071 28.7244 8.25393 27.0309 5.99361ZM29.9929 15.9993H15.9977V19.0368C17.5083 19.1173 18.9968 19.38 20.4066 19.8181C22.1263 20.3525 23.7037 21.1401 25.0439 22.1456C25.7907 22.7059 26.4578 23.3293 27.0314 24.0056C28.7248 21.7451 29.7966 18.9917 29.9929 15.9993ZM25.7075 25.5453C25.1965 24.8979 24.5723 24.2921 23.8437 23.7454C22.703 22.8897 21.335 22.2009 19.8131 21.728C18.5987 21.3506 17.3108 21.1184 15.9977 21.04V29.9998C19.7911 29.7504 23.2001 28.0931 25.7075 25.5453ZM13.9977 29.9999V21.04C12.6846 21.1184 11.3967 21.3506 10.1822 21.728C8.66041 22.2009 7.29241 22.8897 6.15169 23.7454C5.42273 24.2923 4.79838 24.8984 4.28723 25.5461C6.79485 28.0938 10.2041 29.7508 13.9977 29.9999ZM2.96317 24.0066C3.53696 23.3298 4.20431 22.7061 4.95148 22.1456C6.29171 21.1401 7.86904 20.3525 9.58874 19.8181C10.9985 19.38 12.4871 19.1173 13.9977 19.0368V15.9993H0.000976562C0.197352 18.9922 1.26935 21.7459 2.96317 24.0066ZM0.00106184 13.9993L13.9977 13.9993V10.9618C12.4871 10.8813 10.9985 10.6186 9.58874 10.1805C7.86904 9.64613 6.29171 8.85848 4.95148 7.85304C4.20454 7.29268 3.53736 6.66917 2.96368 5.99268C1.26982 8.25318 0.197683 11.0067 0.00106184 13.9993Z" fill="black"/>
</svg>
